<svg width="29" height="29" viewBox="0 0 29 29" fill="none" xmlns="http://www.w3.org/2000/svg">
<path d="M19.9721 0.828857H8.80646C4.26866 0.828857 0.576904 4.52062 0.576904 9.05841V20.224C0.576904 24.7618 4.26866 28.4536 8.80646 28.4536H19.9721C24.5099 28.4536 28.2016 24.7618 28.2016 20.224V9.05841C28.2016 4.52062 24.5098 0.828857 19.9721 0.828857ZM25.4226 20.224C25.4226 23.2342 22.9823 25.6745 19.9721 25.6745H8.80646C5.79625 25.6745 3.35595 23.2342 3.35595 20.224V9.05841C3.35595 6.04815 5.79625 3.6079 8.80646 3.6079H19.9721C22.9823 3.6079 25.4226 6.04815 25.4226 9.05841V20.224Z" fill="#84C318"/>
<path d="M14.3894 7.49634C10.4498 7.49634 7.24463 10.7015 7.24463 14.641C7.24463 18.5806 10.4498 21.7858 14.3894 21.7858C18.329 21.7858 21.5341 18.5806 21.5341 14.641C21.5341 10.7014 18.329 7.49634 14.3894 7.49634ZM14.3894 19.0068C11.9782 19.0068 10.0237 17.0522 10.0237 14.6411C10.0237 12.23 11.9783 10.2754 14.3894 10.2754C16.8005 10.2754 18.7551 12.23 18.7551 14.6411C18.7551 17.0521 16.8004 19.0068 14.3894 19.0068Z" fill="#84C318"/>
<path d="M21.5477 9.26209C22.4932 9.26209 23.2596 8.49561 23.2596 7.55011C23.2596 6.60461 22.4932 5.83813 21.5477 5.83813C20.6022 5.83813 19.8357 6.60461 19.8357 7.55011C19.8357 8.49561 20.6022 9.26209 21.5477 9.26209Z" fill="#84C318"/>
</svg>
