<svg width="30" height="30" viewBox="0 0 30 30" fill="none" xmlns="http://www.w3.org/2000/svg">
<path d="M26.9383 0.0578613H3.0485C1.5914 0.0578613 0.410156 1.23911 0.410156 2.69621V26.5859C0.410156 28.0431 1.5914 29.2244 3.0485 29.2244H26.9382C28.3954 29.2244 29.5767 28.0431 29.5767 26.5859V2.69621C29.5767 1.23911 28.3954 0.0578613 26.9383 0.0578613ZM9.43551 25.2422C9.43551 25.6662 9.09177 26.0099 8.66772 26.0099H5.39939C4.97533 26.0099 4.63159 25.6662 4.63159 25.2422V11.5415C4.63159 11.1174 4.97533 10.7737 5.39939 10.7737H8.66772C9.09177 10.7737 9.43551 11.1174 9.43551 11.5415V25.2422ZM7.03355 9.48216C5.31876 9.48216 3.92862 8.09201 3.92862 6.37722C3.92862 4.66243 5.31876 3.27229 7.03355 3.27229C8.74834 3.27229 10.1385 4.66243 10.1385 6.37722C10.1385 8.09201 8.74842 9.48216 7.03355 9.48216ZM26.5157 25.304C26.5157 25.6939 26.1996 26.0099 25.8098 26.0099H22.3026C21.9127 26.0099 21.5967 25.6939 21.5967 25.304V18.8776C21.5967 17.9189 21.8779 14.6766 19.0913 14.6766C16.9299 14.6766 16.4914 16.8959 16.4034 17.8918V25.304C16.4034 25.6939 16.0874 26.0099 15.6975 26.0099H12.3054C11.9156 26.0099 11.5995 25.6939 11.5995 25.304V11.4796C11.5995 11.0898 11.9156 10.7737 12.3054 10.7737H15.6975C16.0873 10.7737 16.4034 11.0898 16.4034 11.4796V12.6749C17.2049 11.4721 18.396 10.5438 20.932 10.5438C26.5479 10.5438 26.5157 15.7904 26.5157 18.6731V25.304Z" fill="#84C318"/>
</svg>
