<svg width="38" height="27" viewBox="0 0 38 27" fill="none" xmlns="http://www.w3.org/2000/svg">
<path d="M17.8369 0.019043L18.5419 3.40304C12.3379 4.67204 6.6979 9.18404 5.7109 14.401C6.6979 13.837 7.9669 13.414 9.51791 13.414C11.9149 13.414 13.8889 15.67 13.6069 18.772C13.4659 23.425 9.9409 26.95 5.8519 26.95C2.0449 26.95 -0.352096 23.284 0.070905 18.208C0.775904 8.19704 9.9409 1.14705 17.8369 0.019043ZM37.1539 0.019043L37.9999 3.40304C31.7959 4.67204 26.2969 9.18404 25.1689 14.401C26.0149 13.837 27.4249 13.414 28.9759 13.414C31.2319 13.414 33.3469 15.67 33.0649 18.772C32.9239 23.425 29.3989 26.95 25.3099 26.95C21.5029 26.95 19.1059 23.425 19.3879 18.208C20.0929 8.33805 29.3989 1.14705 37.1539 0.019043Z" fill="#214E34"/>
</svg>
