<svg width="30" height="31" viewBox="0 0 30 31" fill="none" xmlns="http://www.w3.org/2000/svg">
<path d="M29.4736 13.0534L16.0697 1.13881C15.474 0.692011 14.7293 0.692011 14.1336 1.13881L0.729592 13.0534C0.13386 13.6492 -0.0150733 14.5428 0.580658 15.1385C1.17639 15.7342 2.06999 15.8832 2.66572 15.2874L3.11252 14.6917V28.9893C3.11252 29.8829 3.70825 30.4786 4.60185 30.4786H25.4525C26.3461 30.4786 26.9418 29.8829 26.9418 28.9893V14.6917L27.3886 15.1385C27.9843 15.7342 28.8779 15.5853 29.4736 14.9896C30.0694 14.5428 30.0694 13.5002 29.4736 13.0534ZM18.0058 20.0533H16.5165V21.5426C16.5165 22.4362 15.9208 23.032 15.0272 23.032C14.1336 23.032 13.5378 22.4362 13.5378 21.5426V20.0533H12.0485C11.1549 20.0533 10.5592 19.4576 10.5592 18.564C10.5592 17.6704 11.1549 17.0746 12.0485 17.0746H13.5378V15.5853C13.5378 14.6917 14.1336 14.096 15.0272 14.096C15.9208 14.096 16.5165 14.6917 16.5165 15.5853V17.0746H18.0058C18.8994 17.0746 19.4951 17.6704 19.4951 18.564C19.4951 19.4576 18.8994 20.0533 18.0058 20.0533Z" fill="#84C318"/>
</svg>
